HIERARCHY
ROOT hip
{
	OFFSET 0.000000 0.000000 0.000000 
	CHANNELS 6 Xposition Yposition Zposition Xrotation Zrotation Yrotation
	JOINT abdomen
	{
		OFFSET 0.000000 3.402643 0.000000 
		CHANNELS 3 Xrotation Zrotation Yrotation
		JOINT chest
		{
			OFFSET 0.000000 8.438565 -0.680529 
			CHANNELS 3 Xrotation Zrotation Yrotation
			JOINT neck
			{
				OFFSET 0.000000 10.207942 -0.272212 
				CHANNELS 3 Xrotation Zrotation Yrotation
				JOINT head
				{
					OFFSET 0.000000 3.130431 0.000000 
					CHANNELS 3 Xrotation Zrotation Yrotation
					End Site
					{
						OFFSET 0.000000 3.130435 0.000000 
					}
				}
			}
			JOINT lCollar
			{
				OFFSET 3.470700 6.669187 -0.816635 
				CHANNELS 3 Yrotation Zrotation Xrotation
				JOINT lShldr
				{
					OFFSET 3.198488 0.000000 0.000000 
					CHANNELS 3 Zrotation Yrotation Xrotation
					JOINT lForeArm
					{
						OFFSET 10.139888 0.000000 0.000000 
						CHANNELS 3 Yrotation Zrotation Xrotation
						JOINT lHand
						{
							OFFSET 8.370511 0.000000 0.000000 
							CHANNELS 3 Zrotation Yrotation Xrotation
							End Site
							{
								OFFSET 4.083176 0.000000 0.000000 
							}
						}
					}
				}
			}
			JOINT rCollar
			{
				OFFSET -3.470700 6.669187 -0.816635 
				CHANNELS 3 Yrotation Zrotation Xrotation
				JOINT rShldr
				{
					OFFSET -3.198488 0.000000 0.000000 
					CHANNELS 3 Zrotation Yrotation Xrotation
					JOINT rForeArm
					{
						OFFSET -10.139888 0.000000 0.000000 
						CHANNELS 3 Yrotation Zrotation Xrotation
						JOINT rHand
						{
							OFFSET -8.370511 0.000000 0.000000 
							CHANNELS 3 Zrotation Yrotation Xrotation
							End Site
							{
								OFFSET -4.083176 0.000000 0.000000 
							}
						}
					}
				}
			}
		}
	}
	JOINT lThigh
	{
		OFFSET 5.308129 -1.633274 1.361059 
		CHANNELS 3 Xrotation Zrotation Yrotation
		JOINT lShin
		{
			OFFSET -2.041588 -20.007561 0.000000 
			CHANNELS 3 Xrotation Zrotation Yrotation
			JOINT lFoot
			{
				OFFSET 0.000000 -19.190928 -1.224953 
				CHANNELS 3 Xrotation Yrotation Zrotation
				End Site
				{
					OFFSET 0.000000 -2.449906 4.627600 
				}
			}
		}
	}
	JOINT rThigh
	{
		OFFSET -5.308129 -1.633274 1.361059 
		CHANNELS 3 Xrotation Zrotation Yrotation
		JOINT rShin
		{
			OFFSET 2.041588 -20.007561 0.000000 
			CHANNELS 3 Xrotation Zrotation Yrotation
			JOINT rFoot
			{
				OFFSET 0.000000 -19.190928 -1.224953 
				CHANNELS 3 Xrotation Yrotation Zrotation
				End Site
				{
					OFFSET 0.000000 -2.449906 4.627600 
				}
			}
		}
	}
}
MOTION
Frames: 14
Frame Time: 0.033333
-9.800171 41.381462 83.627708 7.520008 -2.981990 10.436132 0.000000 0.000000 0.000000 18.912409 -7.377030 6.074381 29.339781 12.459197 -7.407693 -23.666691 -4.098362 -2.826548 -3.519355 9.157742 6.311733 -43.640484 -30.941641 -30.243446 -101.228935 -3.841179 3.302380 14.104182 15.673542 -8.309880 3.090466 -14.082293 8.028685 57.026474 1.847249 4.421679 82.072708 21.642490 12.053351 -30.191280 -12.089687 -8.735066 -51.761173 12.957233 -1.483897 35.542366 2.389322 -50.397179 9.442209 -0.504470 -20.944635 -28.109772 -12.826511 -21.738762 86.408989 -12.149215 -16.163998 -4.697330 -0.716181 6.643128 
-10.712255 43.573753 83.686852 7.231958 -3.700874 7.714022 0.000000 0.000000 0.000000 17.610241 -9.456184 14.054647 34.117126 15.780646 -7.953549 -24.650358 -3.963461 -3.703867 -3.519355 9.157742 6.311733 -49.914978 -4.036005 -21.276066 -105.518875 -9.439700 -2.494515 8.870135 15.499897 -8.489818 3.090466 -14.082293 8.028685 56.054821 -5.401977 16.586067 61.867218 22.140409 18.129688 -26.128967 -9.115985 -9.253456 -46.383026 16.766336 0.516849 25.854259 0.651773 -49.372253 15.537148 -2.553611 -32.042206 -26.412558 -11.120346 -17.493475 82.356186 -11.992860 -15.614417 -6.438634 -0.671084 5.261435 
-11.528245 45.423283 83.355652 8.433740 -4.443805 7.554411 0.000000 0.000000 0.000000 14.261957 -8.512740 20.422411 37.577766 17.857676 -7.672800 -26.881695 -2.712595 -4.425375 -3.519355 9.157742 6.311733 -50.209595 22.253502 -10.831758 -91.570366 -12.914534 0.747625 6.492405 18.050497 -8.569670 3.090466 -14.082293 8.028685 59.584137 -10.049798 28.932718 37.667755 16.398777 23.912554 -24.272902 -6.488708 -9.611183 -43.543110 18.368538 2.260852 15.602722 -1.703774 -41.322281 22.790810 -6.723845 -44.538975 -25.692490 -12.665519 -15.149243 78.660095 -11.884851 -14.885667 -6.408642 -0.592035 4.474630 
-11.934677 46.604027 82.706009 9.790290 -4.783163 10.620581 0.000000 0.000000 0.000000 12.673622 -5.364882 24.078506 34.497551 22.241804 -9.765072 -29.297195 -5.504463 -3.961751 -3.519355 9.157742 6.311733 -50.063309 35.079399 -2.493027 -70.602135 -10.450019 3.712966 5.721080 17.403734 -8.595590 3.090466 -14.082293 8.028685 66.261185 -16.585566 36.120083 13.712053 3.758924 27.061357 -23.264172 -8.187792 -9.318654 -45.291542 15.976326 1.761856 14.309420 -2.095387 -29.762047 26.942213 -9.216253 -48.059067 -25.135216 -18.006094 -15.578965 75.574867 -11.689479 -13.413639 -5.733589 -0.529495 4.154637 
-12.042603 46.360077 82.171837 10.084968 -4.826959 14.581779 0.000000 0.000000 0.000000 12.470832 -0.257451 25.353178 28.147791 21.053127 -11.467090 -29.210974 -3.837724 -5.454369 -3.519355 9.157742 6.311733 -51.376976 45.299133 0.764219 -59.586449 -4.610882 5.007448 6.563939 20.092199 -8.583069 3.090466 -14.082293 8.028685 64.978615 -28.207417 39.094990 4.538783 -1.133393 27.939472 -22.257099 -7.190541 -9.417315 -50.968765 11.062887 0.204937 31.169432 -0.096242 -37.640366 17.962835 -3.479313 -34.445965 -23.580942 -24.584055 -16.610861 74.403709 -11.894523 -12.458583 -7.046932 -0.617237 4.437537 
-12.299853 45.089008 81.560059 9.694460 -4.216484 16.145399 0.000000 0.000000 0.000000 12.362130 3.100385 27.368670 16.032078 17.783815 -13.584965 -24.447042 -1.539020 -7.211829 -3.519355 9.157742 6.311733 -52.365971 54.855236 -3.011883 -64.023697 -4.005516 4.798407 4.696055 18.389111 -8.684834 3.090466 -14.082293 8.028685 59.324638 -40.210445 39.162258 5.027985 -1.466405 28.182535 -21.171766 -8.661758 -9.197764 -55.144432 7.841196 -0.704807 50.708965 2.316222 -42.450237 9.767323 -0.699609 -21.317656 -23.856205 -30.446377 -15.510689 75.230057 -13.105165 -11.776534 -9.476045 -0.699792 4.238250 
-12.873449 43.559223 80.726837 9.167886 -2.342767 14.934431 0.000000 0.000000 0.000000 12.112520 2.625844 29.733541 5.244036 13.089719 -13.649866 -17.579521 2.208683 -8.722261 -3.519355 9.157742 6.311733 -57.970123 55.911564 -12.669837 -75.263794 -8.739689 2.483443 5.360460 16.407946 -8.602302 3.090466 -14.082293 8.028685 56.356060 -45.128693 35.763412 3.434574 -2.523849 27.457623 -20.559753 -10.515329 -8.960341 -55.392189 7.108152 -1.853176 63.641758 4.767173 -45.772972 8.918335 -0.481418 -21.945951 -28.072006 -35.119488 -10.436341 75.963341 -14.794470 -5.013624 -10.082445 -0.515077 2.981869 
-13.958377 42.077744 79.994881 9.924263 -1.250540 12.241995 0.000000 0.000000 0.000000 9.854283 -0.711995 29.788322 -0.053050 15.007686 -14.118341 -15.704751 1.699972 -7.330156 -3.519355 9.157742 6.311733 -62.537827 47.515896 -13.851727 -89.130264 -13.804107 -2.546284 4.229736 15.908733 -8.634165 3.090466 -14.082293 8.028685 57.329109 -40.081623 30.608137 1.447491 -2.988563 24.067381 -21.207529 -9.797801 -9.060557 -51.304131 10.194412 -2.746175 64.039841 5.642944 -46.620354 8.375644 0.245735 -22.833187 -35.437294 -35.564148 -3.333006 75.346130 -16.150608 3.632188 -8.112054 -0.363335 2.354220 
-15.574030 40.628025 79.693947 10.079136 -0.807654 10.080929 0.000000 0.000000 0.000000 8.504537 -5.379994 25.036474 -1.907388 17.353477 -14.923698 -14.717087 0.278003 -6.194063 -3.519355 9.157742 6.311733 -63.567341 23.694923 -7.745075 -95.212669 -12.802648 -4.469615 1.868097 16.541542 -8.735415 3.090466 -14.082293 8.028685 60.178753 -26.211254 24.353165 1.957459 -2.973317 20.697523 -22.362850 -7.055816 -9.429129 -46.943222 16.357689 0.726659 61.131374 3.797867 -47.852085 -5.604499 -0.234558 0.461714 -39.441959 -32.928581 0.332627 69.711357 -16.403208 14.754081 1.265945 -0.322131 5.238165 
-17.730589 39.206890 78.998428 7.773634 -0.406387 13.645627 0.000000 0.000000 0.000000 10.596566 -9.823212 11.871509 1.542753 15.235483 -13.315878 -14.980539 -0.134248 -5.986315 -3.519355 9.157742 6.311733 -56.347092 -13.671262 -6.506327 -93.732765 -6.938132 2.737890 1.746969 17.935802 -8.825805 3.090466 -14.082293 8.028685 59.604870 -7.109130 21.052420 13.381208 -1.220056 23.129007 -22.663229 -5.980582 -9.596577 -50.602978 18.622042 1.819336 65.561043 2.781097 -45.147678 -4.433141 0.312530 -2.337293 -35.542313 -31.695137 -1.895715 60.324280 -14.847483 21.684647 8.495883 0.151651 8.302246 
-19.158010 38.360241 78.299591 3.008399 1.131252 20.596741 0.000000 0.000000 0.000000 15.915956 -10.461848 -4.087502 6.790342 14.222902 -13.361593 -17.976671 -4.919971 -5.180319 -3.519355 9.157742 6.311733 -36.004864 -54.327335 -14.389738 -73.361626 5.051775 16.077011 0.689022 18.154837 -8.894596 3.090466 -14.082293 8.028685 48.198799 3.935639 13.694380 50.821606 9.372063 28.486841 -24.234825 -8.933161 -9.181253 -50.146671 14.678085 -1.677359 64.899567 5.389933 -48.898132 -0.981128 0.430986 -5.825772 -24.635712 -33.764198 -7.104375 59.447029 -14.400953 14.234025 -0.927262 -0.324081 4.515159 
-20.435505 39.249847 77.503296 3.173840 0.156010 16.258678 0.000000 0.000000 0.000000 15.426216 -9.807013 -0.123187 12.866518 14.782052 -13.906049 -22.145735 -8.439292 -4.708389 -3.519355 9.157742 6.311733 72.205322 -81.203384 -116.463470 -42.810173 24.901049 26.341402 6.196899 16.748135 -8.551186 3.090466 -14.082293 8.028685 40.563980 0.084894 -0.916484 86.518700 15.179966 23.811213 -31.413895 -12.840957 -8.944234 -48.117767 17.458738 -2.508949 58.981606 5.653841 -47.225544 1.503827 0.401625 -9.101882 -26.023756 -30.749287 -7.760119 54.469322 -12.195768 11.226983 -2.995680 -0.309126 3.460104 
-21.617445 42.338272 76.386185 2.539476 -1.034140 9.924671 0.000000 0.000000 0.000000 15.821978 -4.520055 5.731702 19.695389 4.943220 -11.226583 -23.175228 -1.967785 -8.625155 -3.519355 9.157742 6.311733 -67.429497 -110.228882 23.047737 -34.520126 30.794588 26.969887 14.206908 18.642719 -8.139503 3.090466 -14.082293 8.028685 37.768936 -8.343793 -3.332996 106.337769 17.744183 4.108366 -47.743084 -6.836720 -10.573075 -38.696850 22.292479 1.189067 42.166725 4.031357 -45.898113 6.575004 0.035489 -16.130152 -24.235563 -25.826237 -8.443438 41.141895 -9.111067 13.273988 2.768381 -0.313148 6.130324 
-22.993362 46.897709 75.276672 4.014203 -4.101277 13.246932 0.000000 0.000000 0.000000 11.061619 3.939340 1.580217 30.524195 -3.391586 -9.170211 -26.586489 5.114513 -12.034139 -3.519355 9.157742 6.311733 -92.049828 -100.998932 47.044983 -57.054356 17.503403 29.189390 9.243479 15.815798 -8.453733 3.090466 -14.082293 8.028685 36.745586 -18.149071 15.266678 97.735519 23.492567 5.302348 -33.725857 -11.326319 -8.926707 -31.917164 23.314789 4.764430 19.283939 -1.118883 -40.592762 17.861752 -3.227243 -34.414345 -17.896780 -22.083029 -11.981753 23.339401 -1.748037 10.627714 23.338493 2.240325 15.910019 
